<?xml version="1.0" encoding="utf-8"?>
<!-- Generator: Adobe Illustrator 21.0.0, SVG Export Plug-In . SVG Version: 6.00 Build 0)  -->
<svg version="1.0" id="Layer_1" xmlns="http://www.w3.org/2000/svg" xmlns:xlink="http://www.w3.org/1999/xlink" x="0px" y="0px"
	 viewBox="0 0 500 500" style="enable-background:new 0 0 500 500;" xml:space="preserve">
<style type="text/css">
	.st0{fill:#FFFFFF;}
	.st1{fill:#92D14F;}
</style>
<rect class="st0" width="500" height="500"/>
<g>
	<path class="st1" d="M250,62C146.2,62,62,146.2,62,250s84.2,188,188,188s188-84.2,188-188S353.8,62,250,62z M250,398.6
		c-82.1,0-148.6-66.5-148.6-148.6S167.9,101.4,250,101.4S398.6,167.9,398.6,250S332.1,398.6,250,398.6z"/>
	<path class="st1" d="M250,306.6c-31.2,0-56.6-25.3-56.6-56.6s25.3-56.6,56.6-56.6c16.9,0,32.1,7.4,42.4,19.2l20.8-17.4
		c-15.3-17.7-38-28.9-63.3-28.9c-46.2,0-83.7,37.5-83.7,83.7s37.5,83.7,83.7,83.7c30.8,0,57.8-16.7,72.3-41.5l-23.6-13.4
		C288.8,295.4,270.7,306.6,250,306.6z"/>
</g>
</svg>
